<svg width="147" height="136" viewBox="0 0 147 136" fill="none" xmlns="http://www.w3.org/2000/svg">
<path opacity="0.1" d="M42.6445 135.611C41.9399 135.336 41.3065 134.88 40.8174 134.269C40.286 133.606 27.6842 117.801 16.7166 97.1123C10.2161 84.8506 5.66442 73.4277 3.18827 63.1616C-0.0161401 49.8772 0.241633 38.401 3.95383 29.0511C8.27381 18.1717 16.1778 9.43749 26.2108 4.4575C36.413 -0.606305 47.6306 -1.21243 57.7978 2.75035C70.828 7.82902 79.8964 19.7714 82.2462 34.0063C93.6091 25.1163 108.367 22.4603 121.398 27.539C131.003 31.2828 138.648 38.7543 142.924 48.5776C147.617 59.3577 147.725 72.047 143.221 83.3914C139.515 92.7248 131.876 101.307 120.516 108.898C111.73 114.77 100.661 120.1 87.6169 124.741C65.6026 132.573 45.746 135.727 44.9115 135.857C44.1337 135.979 43.3529 135.887 42.6445 135.611Z" fill="url(#paint0_linear_350_2692)"/>
<defs>
<linearGradient id="paint0_linear_350_2692" x1="89.5975" y1="15.1446" x2="42.6446" y2="135.611" gradientUnits="userSpaceOnUse">
<stop stop-color="#8C67CA"/>
<stop offset="1" stop-color="#EDE7F5"/>
</linearGradient>
</defs>
</svg>
