<svg width="314" height="297" viewBox="0 0 314 297" fill="none" xmlns="http://www.w3.org/2000/svg">
<path opacity="0.1" d="M246.743 295.605C245.286 296.401 243.624 296.82 241.908 296.779C240.044 296.735 195.695 295.575 145.452 284.771C115.674 278.368 90.0578 269.877 69.3165 259.534C42.4766 246.15 23.5648 229.506 13.1043 210.063C0.933161 187.438 -2.57178 161.824 3.23647 137.937C9.14312 113.647 23.9713 93.9497 44.9899 82.4703C71.9273 67.7583 104.796 69.3968 132.025 85.5587C133.145 53.9148 149.532 25.3742 176.469 10.6623C196.327 -0.182857 219.675 -2.46862 242.216 4.22524C266.952 11.5707 288.418 29.3146 301.11 52.9058C311.551 72.3154 315.175 97.2691 311.879 127.073C309.33 150.125 302.647 176.247 292.015 204.713C274.072 252.753 251.319 290.56 250.36 292.146C249.464 293.624 248.207 294.806 246.743 295.605Z" fill="url(#paint0_linear_350_2691)"/>
<defs>
<linearGradient id="paint0_linear_350_2691" x1="68.9743" y1="138.633" x2="204.988" y2="387.671" gradientUnits="userSpaceOnUse">
<stop stop-color="#8C67CA"/>
<stop offset="1" stop-color="#EDE7F5"/>
</linearGradient>
</defs>
</svg>
