<svg width="195" height="188" viewBox="0 0 195 188" fill="none" xmlns="http://www.w3.org/2000/svg">
<path opacity="0.1" d="M168.778 183.984C167.934 184.618 166.926 185.033 165.842 185.164C164.665 185.306 136.643 188.619 104.031 186.398C84.7034 185.082 67.8047 182.073 53.8058 177.453C35.691 171.475 22.2692 162.722 13.9122 151.437C4.18844 138.305 -0.352807 122.501 1.12577 106.935C2.62957 91.1075 10.1678 77.3566 22.3518 68.2147C37.9669 56.4983 58.8063 54.5333 77.4194 62.2245C75.2396 42.2036 82.9527 22.7444 98.5678 11.0281C110.079 2.39125 124.567 -1.17603 139.366 0.982715C155.607 3.35147 170.736 12.5638 180.876 26.2567C189.218 37.5226 193.773 52.8999 194.416 71.9608C194.913 86.7038 193.087 103.756 188.99 122.643C182.075 154.519 171.199 180.391 170.74 181.477C170.311 182.489 169.627 183.347 168.778 183.984Z" fill="url(#paint0_linear_350_2693)"/>
<defs>
<linearGradient id="paint0_linear_350_2693" x1="60.4596" y1="39.6216" x2="168.778" y2="183.984" gradientUnits="userSpaceOnUse">
<stop stop-color="#8C67CA"/>
<stop offset="1" stop-color="#EDE7F5"/>
</linearGradient>
</defs>
</svg>
