<svg width="117" height="109" viewBox="0 0 117 109" fill="none" xmlns="http://www.w3.org/2000/svg">
<path opacity="0.1" d="M34.4837 108.161C33.9223 107.946 33.4166 107.587 33.0247 107.105C32.5988 106.581 22.4998 94.0916 13.6727 77.7131C8.44087 68.006 4.76203 58.9547 2.73863 50.8113C0.120133 40.2736 0.262379 31.1537 3.16094 23.7045C6.53407 15.0367 12.7666 8.0538 20.7112 4.04223C28.7898 -0.0368479 37.6994 -0.579606 45.7994 2.5136C56.1803 6.47784 63.4507 15.9172 65.3953 27.2148C74.3753 20.0893 86.087 17.8985 96.4679 21.8628C104.12 24.7851 110.235 30.6799 113.686 38.4617C117.474 47.0015 117.629 57.0832 114.112 66.1215C111.218 73.5576 105.196 80.4179 96.2112 86.5116C89.2622 91.2249 80.4965 95.5204 70.1574 99.2791C52.7085 105.622 36.9486 108.236 36.2862 108.344C35.669 108.445 35.048 108.376 34.4837 108.161Z" fill="url(#paint0_linear_350_2690)"/>
<defs>
<linearGradient id="paint0_linear_350_2690" x1="71.1335" y1="12.1881" x2="34.4837" y2="108.161" gradientUnits="userSpaceOnUse">
<stop stop-color="#8C67CA"/>
<stop offset="1" stop-color="#EDE7F5"/>
</linearGradient>
</defs>
</svg>
