<svg width="225" height="210" viewBox="0 0 225 210" fill="none" xmlns="http://www.w3.org/2000/svg">
<path opacity="0.2" d="M65.4352 208.862C64.3482 208.447 63.3689 207.751 62.61 206.817C61.7855 205.803 42.2305 181.619 25.1382 149.905C15.0077 131.109 7.88424 113.583 3.96627 97.8144C-1.10401 77.4099 -0.828576 59.7508 4.784 45.3268C11.3155 28.543 23.3837 15.0218 38.7671 7.25408C54.41 -0.644368 71.6619 -1.69533 87.3462 4.29415C107.447 11.9702 121.525 30.248 125.29 52.1238C142.679 38.3266 165.356 34.0845 185.457 41.7605C200.275 47.4191 212.115 58.8333 218.798 73.9015C226.132 90.4374 226.433 109.959 219.622 127.46C214.019 141.859 202.357 155.143 184.96 166.942C171.505 176.069 154.531 184.386 134.511 191.664C100.725 203.946 70.2081 209.008 68.9255 209.218C67.7303 209.412 66.528 209.279 65.4352 208.862Z" fill="url(#paint0_linear_350_2733)"/>
<defs>
<linearGradient id="paint0_linear_350_2733" x1="136.401" y1="23.0272" x2="65.4353" y2="208.862" gradientUnits="userSpaceOnUse">
<stop stop-color="#8C67CA"/>
<stop offset="1" stop-color="#EDE7F5"/>
</linearGradient>
</defs>
</svg>
