<svg width="304" height="294" viewBox="0 0 304 294" fill="none" xmlns="http://www.w3.org/2000/svg">
<path opacity="0.1" d="M263.3 288.111C261.977 289.103 260.4 289.753 258.702 289.958C256.859 290.181 212.98 295.368 161.915 291.891C131.65 289.83 105.188 285.118 83.268 277.883C54.9024 268.523 33.8857 254.816 20.7998 237.145C5.57357 216.582 -1.53744 191.836 0.777828 167.462C3.13258 142.678 14.9364 121.146 34.0151 106.831C58.4662 88.4843 91.0981 85.4073 120.244 97.4507C116.83 66.1006 128.908 35.63 153.359 17.2838C171.384 3.75961 194.071 -1.82628 217.244 1.55404C242.675 5.2632 266.366 19.6885 282.243 41.1298C295.306 58.7707 302.439 82.8495 303.445 112.697C304.223 135.782 301.364 162.483 294.949 192.059C284.12 241.972 267.091 282.485 266.371 284.185C265.7 285.769 264.629 287.113 263.3 288.111Z" fill="url(#paint0_linear_350_2732)"/>
<defs>
<linearGradient id="paint0_linear_350_2732" x1="93.6869" y1="62.0574" x2="263.3" y2="288.111" gradientUnits="userSpaceOnUse">
<stop stop-color="#8C67CA"/>
<stop offset="1" stop-color="#EDE7F5"/>
</linearGradient>
</defs>
</svg>
