<svg width="150" height="138" viewBox="0 0 150 138" fill="none" xmlns="http://www.w3.org/2000/svg">
<path opacity="0.1" d="M101.682 138.148C100.953 138.386 100.162 138.435 99.3863 138.27C98.5435 138.092 78.4993 133.795 56.5979 124.617C43.6172 119.177 32.7044 113.143 24.1632 106.682C13.1105 98.3218 5.9359 89.1543 2.8377 79.4342C-0.766992 68.1236 -0.181468 56.192 4.48717 45.8366C9.23474 35.3067 17.644 27.6207 28.1663 24.1937C41.6516 19.8016 56.4412 23.34 67.4344 32.9952C70.633 18.7181 80.5019 7.14828 93.9872 2.75618C103.928 -0.481512 114.727 0.465141 124.396 5.42158C135.006 10.8607 143.248 20.7446 147.007 32.5383C150.099 42.2416 149.623 53.8833 145.593 67.1397C142.475 77.3931 137.219 88.689 129.971 100.714C117.737 121.008 104.189 136.246 103.619 136.885C103.087 137.48 102.415 137.909 101.682 138.148Z" fill="url(#paint0_linear_350_2767)"/>
<defs>
<linearGradient id="paint0_linear_350_2767" x1="61.0765" y1="13.475" x2="101.682" y2="138.148" gradientUnits="userSpaceOnUse">
<stop stop-color="#8C67CA"/>
<stop offset="1" stop-color="#EDE7F5"/>
</linearGradient>
</defs>
</svg>
