<svg width="424" height="402" viewBox="0 0 424 402" fill="none" xmlns="http://www.w3.org/2000/svg">
<path opacity="0.1" d="M84.9064 400.051C82.9548 398.925 81.2949 397.294 80.1297 395.275C78.8633 393.083 48.8716 340.841 25.8965 274.951C12.2791 235.9 4.02381 200.198 1.36061 168.841C-2.08629 128.264 3.8497 94.5744 19.0022 68.7071C36.635 38.6083 63.8575 16.4453 95.6579 6.30142C127.995 -4.01297 161.312 -0.738468 189.474 15.5209C225.566 36.3587 246.892 75.6277 247.392 118.619C284.874 97.5579 329.545 96.3912 365.637 117.229C392.243 132.59 411.392 158.047 419.558 188.912C428.52 222.784 423.114 260.212 404.728 291.597C389.601 317.419 363.228 339.252 326.342 356.49C297.812 369.823 262.803 380.532 222.284 388.319C153.904 401.46 93.9901 401.793 91.4729 401.801C89.1273 401.807 86.8686 401.184 84.9064 400.051Z" fill="url(#paint0_linear_350_2764)"/>
<defs>
<linearGradient id="paint0_linear_350_2764" x1="277.555" y1="66.3747" x2="84.9066" y2="400.052" gradientUnits="userSpaceOnUse">
<stop stop-color="#8C67CA"/>
<stop offset="1" stop-color="#EDE7F5"/>
</linearGradient>
</defs>
</svg>
