<svg width="152" height="136" viewBox="0 0 152 136" fill="none" xmlns="http://www.w3.org/2000/svg">
<path opacity="0.1" d="M65.2119 135.546C64.451 135.45 63.7151 135.158 63.0829 134.679C62.3962 134.158 46.0896 121.735 30.1809 104.105C20.7519 93.6565 13.4471 83.5499 8.46994 74.0671C2.02919 61.7963 -0.559019 50.4464 0.776487 40.3323C2.33094 28.5635 7.94122 18.0168 16.5748 10.635C25.3541 3.12889 36.2357 -0.244838 47.2157 1.1347C61.2876 2.90271 73.1628 12.4017 78.9984 25.8188C87.9718 14.2626 101.828 7.99621 115.9 9.76422C126.273 11.0675 135.641 16.5223 142.279 25.1239C149.564 34.5633 152.812 47.0155 151.191 59.2873C149.858 69.3837 144.47 79.7148 135.179 89.9932C127.992 97.9433 118.427 105.926 106.748 113.72C87.0375 126.874 68.2909 134.892 67.5024 135.227C66.7676 135.539 65.977 135.642 65.2119 135.546Z" fill="url(#paint0_linear_350_3021)"/>
<defs>
<linearGradient id="paint0_linear_350_3021" x1="81.5574" y1="5.44943" x2="65.212" y2="135.546" gradientUnits="userSpaceOnUse">
<stop stop-color="#8C67CA"/>
<stop offset="1" stop-color="#EDE7F5"/>
</linearGradient>
</defs>
</svg>
