<svg width="18" height="18" viewBox="0 0 18 18" fill="none" xmlns="http://www.w3.org/2000/svg">
<g clip-path="url(#clip0_350_2821)">
<path fill-rule="evenodd" clip-rule="evenodd" d="M14.8335 3.32244C15.6494 2.97889 16.5241 3.66884 16.38 4.54235L14.6784 14.8599C14.5143 15.8547 13.4217 16.4255 12.509 15.9298C11.7453 15.5149 10.6122 14.8765 9.59096 14.2092C9.08104 13.876 7.51961 12.8075 7.71154 12.0469C7.87564 11.3966 10.5006 8.95319 12.0006 7.50006C12.5898 6.92926 12.3214 6.59951 11.6256 7.12506C9.89936 8.42879 7.12797 10.411 6.2115 10.9688C5.40291 11.461 4.98072 11.545 4.47713 11.461C3.55753 11.3077 2.70496 11.0704 2.0089 10.7819C1.06812 10.3919 1.11394 9.09906 2.00826 8.72256L14.8335 3.32244Z" fill="white"/>
</g>
<defs>
<clipPath id="clip0_350_2821">
<rect width="18" height="18" fill="white"/>
</clipPath>
</defs>
</svg>
